<svg width="1280" height="720" version="1.1" viewBox="0 0 338.67 190.5" xmlns="http://www.w3.org/2000/svg">
	<g transform="translate(0 -106.5)">
		<rect x=".079375" y="106.42" width="338.67" height="190.5" style="fill:#361d1d;paint-order:normal;stroke-linejoin:round;stroke-width:.15875;stroke:#ffff75"/>
		<g transform="matrix(.034637 0 0 -.034637 111.04 223.53)" style="fill:#414141">
			<path d="m416 256q-66 0-113 47t-47 113v704q0 66 47 113t113 47h1088q66 0 113-47t47-113v-704q0-66-47-113t-113-47zm-32 864v-704q0-13 9.5-22.5t22.5-9.5h1088q13 0 22.5 9.5t9.5 22.5v704q0 13-9.5 22.5t-22.5 9.5h-1088q-13 0-22.5-9.5t-9.5-22.5zm1376-928h160v-96q0-40-47-68t-113-28h-1600q-66 0-113 28t-47 68v96h160zm-720-96q16 0 16 16t-16 16h-160q-16 0-16-16t16-16z" style="fill:#414141"/>
		</g>
		<g transform="matrix(.01472 0 0 -.01472 53.236 292.78)" style="fill:#414141">
			<path d="m300 6314c-88-36-144-65-161-83-37-40-67-125-89-255-38-224-45-372-44-891 0-495 6-679 44-1380 30-547 31-580 35-725 3-150 18-221 80-383l38-97h2624l36 93c84 222 105 406 57 501-14 28-36 58-50 68-86 62-458 143-825 180-187 19-845 16-1030-4-77-9-143-14-148-11-20 12-87 212-121 363-73 327-102 687-171 2085-14 280-25 529-25 552v43l-57-1c-46-1-87-13-193-55z" style="fill:#414141"/>
			<path d="m2810 4360v-250h7150v500h-7150z" style="fill:#414141"/>
			<path d="m3424 3468c3-304 11-1124 17-1823 5-698 11-1346 12-1440l2-170 123-3c67-1 122-1 122 1 0 3 45 409 100 903 253 2260 340 3047 340 3065s-11 19-361 19h-362z" style="fill:#414141"/>
			<path d="m8620 4017c0-2 86-770 190-1708 105-937 204-1828 221-1979 16-151 32-281 34-287 3-10 37-13 123-13h119l7 672c17 1661 26 2668 26 2981v337h-360c-198 0-360-1-360-3z" style="fill:#414141"/>
			<path d="m473 1748c4-354 10-884 15-1178l7-535 96-3 97-3 6 33c5 30 41 266 166 1093 22 143 67 440 100 660s67 439 74 488l13 87h-582z" style="fill:#414141"/>
			<path d="m1985 2348c4-24 84-554 179-1178l172-1135 192-6 6 213c5 179 26 1890 26 2086v62h-581z" style="fill:#414141"/>
		</g>
		<g transform="matrix(.0066244 0 0 -.0066244 208.85 288.29)" style="fill:#414141">
			<path d="m8423 10646c-23-8-62-25-85-39-24-14-623-606-1333-1316l-1290-1291-855 853c-911 910-875 877-969 877-69 0-145-51-182-122-23-45-25-125-4-176 11-26 254-275 808-830l792-792h-2215c-1431 0-2244-4-2296-10-115-15-187-35-282-80-101-48-155-85-236-161-114-106-200-251-248-415l-23-79-3-3120c-2-3432-6-3207 58-3373 48-124 98-200 200-303 103-104 188-161 314-210 165-64-304-59 5826-59s5661-5 5826 59c122 48 212 107 310 205s157 188 205 310c63 162 59-54 59 3335-1 2535-3 3099-14 3161-62 345-310 613-655 709l-96 26-2960 3-2960 2 1247 1248c1025 1025 1251 1257 1274 1302 37 72 41 182 8 226-50 67-131 89-221 60zm577-3740c258-42 485-178 646-388 95-123 172-306 194-463 8-57 10-678 8-2200l-3-2120-23-85c-13-47-44-130-71-185-132-276-360-464-662-547l-84-23h-7280l-82 22c-189 50-325 127-458 258-189 185-281 383-305 650-13 149-13 4012 0 4161 42 470 374 836 833 919 110 20 7165 21 7287 1zm2349-1711c205-49 384-229 431-434 17-71 17-192 1-261-49-209-218-382-426-435-76-19-214-19-289 0-152 40-302 159-369 295-138 275-52 594 204 760 56 36 149 73 209 83 59 10 180 6 239-8zm-17-1446c162-33 329-162 400-309 47-97 62-164 60-275-1-160-62-295-184-411-113-107-246-157-409-156-371 4-642 362-549 726 40 157 139 284 288 369 102 57 271 81 394 56z" style="fill:#414141"/>
		</g>
	</g>
</svg>
