<svg width="1280" height="720" version="1.1" viewBox="0 0 338.67 190.5" xmlns="http://www.w3.org/2000/svg">
	<g transform="translate(0 -106.5)">
		<rect x=".079375" y="106.42" width="338.67" height="190.5" style="fill:#361d1d;paint-order:normal;stroke-linejoin:round;stroke-width:.15875;stroke:#ffff75"/>
		<g transform="matrix(.034637 0 0 -.034637 111.04 223.53)" style="fill:#414141">
			<path d="m416 256q-66 0-113 47t-47 113v704q0 66 47 113t113 47h1088q66 0 113-47t47-113v-704q0-66-47-113t-113-47zm-32 864v-704q0-13 9.5-22.5t22.5-9.5h1088q13 0 22.5 9.5t9.5 22.5v704q0 13-9.5 22.5t-22.5 9.5h-1088q-13 0-22.5-9.5t-9.5-22.5zm1376-928h160v-96q0-40-47-68t-113-28h-1600q-66 0-113 28t-47 68v96h160zm-720-96q16 0 16 16t-16 16h-160q-16 0-16-16t16-16z" style="fill:#414141"/>
		</g>
		<g transform="matrix(.01472 0 0 -.01472 53.236 292.78)" style="fill:#414141">
			<path d="m300 6314c-88-36-144-65-161-83-37-40-67-125-89-255-38-224-45-372-44-891 0-495 6-679 44-1380 30-547 31-580 35-725 3-150 18-221 80-383l38-97h2624l36 93c84 222 105 406 57 501-14 28-36 58-50 68-86 62-458 143-825 180-187 19-845 16-1030-4-77-9-143-14-148-11-20 12-87 212-121 363-73 327-102 687-171 2085-14 280-25 529-25 552v43l-57-1c-46-1-87-13-193-55z" style="fill:#414141"/>
			<path d="m2810 4360v-250h7150v500h-7150z" style="fill:#414141"/>
			<path d="m3424 3468c3-304 11-1124 17-1823 5-698 11-1346 12-1440l2-170 123-3c67-1 122-1 122 1 0 3 45 409 100 903 253 2260 340 3047 340 3065s-11 19-361 19h-362z" style="fill:#414141"/>
			<path d="m8620 4017c0-2 86-770 190-1708 105-937 204-1828 221-1979 16-151 32-281 34-287 3-10 37-13 123-13h119l7 672c17 1661 26 2668 26 2981v337h-360c-198 0-360-1-360-3z" style="fill:#414141"/>
			<path d="m473 1748c4-354 10-884 15-1178l7-535 96-3 97-3 6 33c5 30 41 266 166 1093 22 143 67 440 100 660s67 439 74 488l13 87h-582z" style="fill:#414141"/>
			<path d="m1985 2348c4-24 84-554 179-1178l172-1135 192-6 6 213c5 179 26 1890 26 2086v62h-581z" style="fill:#414141"/>
		</g>
	</g>
</svg>
