<?xml version="1.0" encoding="UTF-8" standalone="no"?>
<svg
   xmlns:dc="http://purl.org/dc/elements/1.1/"
   xmlns:cc="http://creativecommons.org/ns#"
   xmlns:rdf="http://www.w3.org/1999/02/22-rdf-syntax-ns#"
   xmlns:svg="http://www.w3.org/2000/svg"
   xmlns="http://www.w3.org/2000/svg"
   xmlns:sodipodi="http://sodipodi.sourceforge.net/DTD/sodipodi-0.dtd"
   xmlns:inkscape="http://www.inkscape.org/namespaces/inkscape"
   width="1280"
   height="720"
   version="1.1"
   viewBox="0 0 338.67 190.5"
   id="svg48"
   sodipodi:docname="fond-7.svg"
   inkscape:version="0.92.3 (2405546, 2018-03-11)">
  <metadata
     id="metadata54">
    <rdf:RDF>
      <cc:Work
         rdf:about="">
        <dc:format>image/svg+xml</dc:format>
        <dc:type
           rdf:resource="http://purl.org/dc/dcmitype/StillImage" />
      </cc:Work>
    </rdf:RDF>
  </metadata>
  <defs
     id="defs52" />
  <sodipodi:namedview
     pagecolor="#ffffff"
     bordercolor="#666666"
     borderopacity="1"
     objecttolerance="10"
     gridtolerance="10"
     guidetolerance="10"
     inkscape:pageopacity="0"
     inkscape:pageshadow="2"
     inkscape:window-width="1366"
     inkscape:window-height="708"
     id="namedview50"
     showgrid="false"
     inkscape:zoom="0.5828125"
     inkscape:cx="714.82444"
     inkscape:cy="490.67559"
     inkscape:window-x="0"
     inkscape:window-y="0"
     inkscape:window-maximized="1"
     inkscape:current-layer="svg48" />
  <rect
     width="100%"
     height="100%"
     fill="white"
     id="rect2" />
  <g
     transform="translate(0 -106.5)"
     id="g42">
    <path
       d="m344.24 201.32h-297.74l-48.598 84.174 2.1726-179.07 45.757-.11744.13364 94.48"
       style="fill:none;stroke:#b2b2b2"
       id="path4" />
    <rect
       x="122.64"
       y="181.62"
       width="41.955"
       height="29.955"
       style="fill:#ffffff;paint-order:normal"
       id="rect6" />
    <g
       transform="matrix(.034637 0 0 -.034637 111.04 223.53)"
       style="fill:#b2b2b2"
       id="g10">
      <path
         d="m416 256q-66 0-113 47t-47 113v704q0 66 47 113t113 47h1088q66 0 113-47t47-113v-704q0-66-47-113t-113-47zm-32 864v-704q0-13 9.5-22.5t22.5-9.5h1088q13 0 22.5 9.5t9.5 22.5v704q0 13-9.5 22.5t-22.5 9.5h-1088q-13 0-22.5-9.5t-9.5-22.5zm1376-928h160v-96q0-40-47-68t-113-28h-1600q-66 0-113 28t-47 68v96h160zm-720-96q16 0 16 16t-16 16h-160q-16 0-16-16t16-16z"
         style="fill:#b2b2b2"
         id="path8" />
    </g>
    <g
       transform="matrix(.01472 0 0 -.01472 53.236 292.78)"
       style="fill:#b2b2b2"
       id="g24">
      <path
         d="m300 6314c-88-36-144-65-161-83-37-40-67-125-89-255-38-224-45-372-44-891 0-495 6-679 44-1380 30-547 31-580 35-725 3-150 18-221 80-383l38-97h2624l36 93c84 222 105 406 57 501-14 28-36 58-50 68-86 62-458 143-825 180-187 19-845 16-1030-4-77-9-143-14-148-11-20 12-87 212-121 363-73 327-102 687-171 2085-14 280-25 529-25 552v43l-57-1c-46-1-87-13-193-55z"
         style="fill:#b2b2b2"
         id="path12" />
      <path
         d="m2810 4360v-250h7150v500h-7150z"
         style="fill:#b2b2b2"
         id="path14" />
      <path
         d="m3424 3468c3-304 11-1124 17-1823 5-698 11-1346 12-1440l2-170 123-3c67-1 122-1 122 1 0 3 45 409 100 903 253 2260 340 3047 340 3065s-11 19-361 19h-362z"
         style="fill:#b2b2b2"
         id="path16" />
      <path
         d="m8620 4017c0-2 86-770 190-1708 105-937 204-1828 221-1979 16-151 32-281 34-287 3-10 37-13 123-13h119l7 672c17 1661 26 2668 26 2981v337h-360c-198 0-360-1-360-3z"
         style="fill:#b2b2b2"
         id="path18" />
      <path
         d="m473 1748c4-354 10-884 15-1178l7-535 96-3 97-3 6 33c5 30 41 266 166 1093 22 143 67 440 100 660s67 439 74 488l13 87h-582z"
         style="fill:#b2b2b2"
         id="path20" />
      <path
         d="m1985 2348c4-24 84-554 179-1178l172-1135 192-6 6 213c5 179 26 1890 26 2086v62h-581z"
         style="fill:#b2b2b2"
         id="path22" />
    </g>
    <rect
       x="213.18"
       y="240.3"
       width="62.833"
       height="44.601"
       style="fill:#f8f8f8;paint-order:normal"
       id="rect26" />
    <g
       transform="matrix(.0066244 0 0 -.0066244 208.85 288.29)"
       style="fill:#b2b2b2"
       id="g30">
      <path
         d="m8423 10646c-23-8-62-25-85-39-24-14-623-606-1333-1316l-1290-1291-855 853c-911 910-875 877-969 877-69 0-145-51-182-122-23-45-25-125-4-176 11-26 254-275 808-830l792-792h-2215c-1431 0-2244-4-2296-10-115-15-187-35-282-80-101-48-155-85-236-161-114-106-200-251-248-415l-23-79-3-3120c-2-3432-6-3207 58-3373 48-124 98-200 200-303 103-104 188-161 314-210 165-64-304-59 5826-59s5661-5 5826 59c122 48 212 107 310 205s157 188 205 310c63 162 59-54 59 3335-1 2535-3 3099-14 3161-62 345-310 613-655 709l-96 26-2960 3-2960 2 1247 1248c1025 1025 1251 1257 1274 1302 37 72 41 182 8 226-50 67-131 89-221 60zm577-3740c258-42 485-178 646-388 95-123 172-306 194-463 8-57 10-678 8-2200l-3-2120-23-85c-13-47-44-130-71-185-132-276-360-464-662-547l-84-23h-7280l-82 22c-189 50-325 127-458 258-189 185-281 383-305 650-13 149-13 4012 0 4161 42 470 374 836 833 919 110 20 7165 21 7287 1zm2349-1711c205-49 384-229 431-434 17-71 17-192 1-261-49-209-218-382-426-435-76-19-214-19-289 0-152 40-302 159-369 295-138 275-52 594 204 760 56 36 149 73 209 83 59 10 180 6 239-8zm-17-1446c162-33 329-162 400-309 47-97 62-164 60-275-1-160-62-295-184-411-113-107-246-157-409-156-371 4-642 362-549 726 40 157 139 284 288 369 102 57 271 81 394 56z"
         style="fill:#b2b2b2"
         id="path28" />
    </g>
    <g
       transform="matrix(.0068833 0 0 -.0068833 272.89 202.22)"
       style="fill:#b2b2b2"
       id="g40">
      <path
         d="m2680 12794c-1273-21-2269-77-2447-138-23-8-43-23-51-39-73-150-121-1153-164-3482-16-869-16-4612 0-5485 36-1948 74-2927 128-3318 12-82 13-116 5-126-70-84 524-141 1944-188 501-17 2569-16 3070 0 993 33 1551 69 1805 118 133 25 133 25 153 146 61 371 101 1330 139 3393 16 867 16 4602 0 5475-38 2036-85 3160-142 3405-5 22-7 49-4 61 7 26-20 39-128 58-233 43-776 77-1713 107-308 9-2215 19-2595 13zm-2336-229c281-45 950-82 1896-105 547-14 2270-14 2820-1 1020 25 1730 67 1969 117 30 6 33 5 28-12-105-343-183-4055-157-7461 20-2634 73-4371 145-4788 8-43 13-81 11-82-2-2-14 1-28 6-84 32-538 73-1113 101-1208 59-3381 58-4580 0-494-24-942-62-1060-90-22-5-41-8-43-6-1 2 4 57 12 122 149 1175 190 7651 71 10900-27 713-59 1171-92 1303-5 20-3 23 12 17 10-3 59-13 109-21z"
         style="fill:#b2b2b2"
         id="path32" />
      <path
         d="m3185 11823c-555-6-1170-29-1525-59-321-26-483-49-565-79l-41-15-22-97c-133-574-162-2706-51-3803 20-204 46-350 72-412 13-31 22-38 69-51 293-82 1209-130 2483-130 1040 0 1774 29 2246 88 259 32 311 57 342 165 45 153 79 496 109 1090 16 326 16 1654 0 1980-41 803-87 1140-161 1180-73 39-454 83-956 110-440 23-1418 40-2e3 33zm2905-227c0-3-6-35-14-73-28-133-57-403-76-713-42-696-42-1942 1-2610 22-358 61-692 89-764 16-43 13-44-47-30-120 28-474 64-838 84-888 48-2344 48-3205 0-418-24-738-57-842-86-15-4-16-1-7 28 15 55 48 312 64 513 81 1006 63 2738-35 3445-11 74-22 150-26 169l-7 34 34-7c649-121 2981-154 4289-61 218 16 506 48 570 64 44 11 50 12 50 7z"
         style="fill:#b2b2b2"
         id="path34" />
      <path
         d="m5961 6924c-163-44-298-174-345-333-23-77-21-204 4-285 42-133 157-257 287-306 81-31 219-38 298-15 93 27 155 63 221 129 190 190 189 491-1 681-33 33-83 72-111 87-101 54-244 71-353 42z"
         style="fill:#b2b2b2"
         id="path36" />
      <path
         d="m2940 5514c-771-15-1513-64-1745-114-119-25-142-49-169-178-72-331-110-1034-110-2022 0-1071 48-1847 130-2093 23-69 67-89 279-121 207-33 629-64 1170-88 382-16 1786-16 2165 0 842 37 1265 79 1406 141 28 13 46 29 57 54 59 123 111 616 137 1287 13 343 13 1329 0 1670-30 757-94 1285-161 1320-98 53-571 98-1359 130-244 10-1504 20-1800 14zm-1735-234c171-39 666-77 1330-101 394-15 1725-15 2125 0 656 24 1148 62 1323 101 37 8 39 7 33-16-120-475-164-2245-86-3394 21-312 63-644 90-716 11-27 5-29-50-14-152 42-699 87-1360 111-404 16-1653 16-2055 1-651-25-1127-63-1338-108-38-8-69-14-71-14-1 0 6 39 16 88 34 169 68 569 89 1072 16 351 16 1485 0 1825-26 595-61 969-106 1148-8 31-3 32 60 17z"
         style="fill:#b2b2b2"
         id="path38" />
    </g>
  </g>
  <text
     xml:space="preserve"
     style="font-style:normal;font-variant:normal;font-weight:normal;font-stretch:normal;font-size:4.93893719px;line-height:1.25;font-family:sans-serif;-inkscape-font-specification:'Avenir LT Std';font-variant-ligatures:normal;font-variant-position:normal;font-variant-caps:normal;font-variant-numeric:normal;font-variant-alternates:normal;font-feature-settings:normal;text-indent:0;text-align:start;text-decoration:none;text-decoration-line:none;text-decoration-style:solid;text-decoration-color:#000000;letter-spacing:0px;word-spacing:0px;text-transform:none;writing-mode:lr-tb;direction:ltr;text-orientation:mixed;dominant-baseline:auto;baseline-shift:baseline;text-anchor:start;white-space:normal;shape-padding:0;opacity:1;vector-effect:none;fill:#000000;fill-opacity:1;stroke:none;stroke-width:0.26458591;stroke-linecap:butt;stroke-linejoin:miter;stroke-miterlimit:4;stroke-dasharray:none;stroke-dashoffset:0;stroke-opacity:1"
     x="8.111249"
     y="93.283615"
     id="text866"
     transform="rotate(-29.825552)"><tspan
       sodipodi:role="line"
       id="tspan864"
       x="8.111249"
       y="93.283615"
       style="stroke-width:0.26458591">le faux plafond...</tspan></text>
</svg>
