<?xml version="1.0" encoding="UTF-8" standalone="no"?>
<svg
   xmlns:dc="http://purl.org/dc/elements/1.1/"
   xmlns:cc="http://creativecommons.org/ns#"
   xmlns:rdf="http://www.w3.org/1999/02/22-rdf-syntax-ns#"
   xmlns:svg="http://www.w3.org/2000/svg"
   xmlns="http://www.w3.org/2000/svg"
   xmlns:sodipodi="http://sodipodi.sourceforge.net/DTD/sodipodi-0.dtd"
   xmlns:inkscape="http://www.inkscape.org/namespaces/inkscape"
   version="1.0"
   width="1280.000000pt"
   height="740.000000pt"
   viewBox="0 0 1280.000000 740.000000"
   preserveAspectRatio="xMidYMid meet"
   id="svg454"
   sodipodi:docname="mur.svg"
   inkscape:version="0.92.3 (2405546, 2018-03-11)">
  <defs
     id="defs458" />
  <sodipodi:namedview
     pagecolor="#ffffff"
     bordercolor="#666666"
     borderopacity="1"
     objecttolerance="10"
     gridtolerance="10"
     guidetolerance="10"
     inkscape:pageopacity="0"
     inkscape:pageshadow="2"
     inkscape:window-width="1366"
     inkscape:window-height="708"
     id="namedview456"
     showgrid="false"
     inkscape:zoom="0.43710937"
     inkscape:cx="276.15091"
     inkscape:cy="674.99088"
     inkscape:window-x="0"
     inkscape:window-y="0"
     inkscape:window-maximized="1"
     inkscape:current-layer="svg454" />
  <metadata
     id="metadata2">
Created by potrace 1.15, written by Peter Selinger 2001-2017
<rdf:RDF>
  <cc:Work
     rdf:about="">
    <dc:format>image/svg+xml</dc:format>
    <dc:type
       rdf:resource="http://purl.org/dc/dcmitype/StillImage" />
  </cc:Work>
</rdf:RDF>
</metadata>
  <g
     transform="translate(0.000000,740.000000) scale(0.100000,-0.100000)"
     fill="#000000"
     stroke="none"
     id="g452"
     style="fill:#a03d3d;fill-opacity:1">
    <path
       d="M50 7195 l0 -205 500 0 500 0 0 205 0 205 -500 0 -500 0 0 -205z"
       id="path4"
       style="fill:#a03d3d;fill-opacity:1" />
    <path
       d="M1130 7195 l0 -205 500 0 500 0 0 205 0 205 -500 0 -500 0 0 -205z"
       id="path6"
       style="fill:#a03d3d;fill-opacity:1" />
    <path
       d="M2210 7195 l0 -205 500 0 500 0 0 205 0 205 -500 0 -500 0 0 -205z"
       id="path8"
       style="fill:#a03d3d;fill-opacity:1" />
    <path
       d="M3250 7195 l0 -205 500 0 500 0 0 205 0 205 -500 0 -500 0 0 -205z"
       id="path10"
       style="fill:#a03d3d;fill-opacity:1" />
    <path
       d="M4330 7195 l0 -205 500 0 500 0 0 205 0 205 -500 0 -500 0 0 -205z"
       id="path12"
       style="fill:#a03d3d;fill-opacity:1" />
    <path
       d="M5410 7195 l0 -205 500 0 500 0 0 205 0 205 -500 0 -500 0 0 -205z"
       id="path14"
       style="fill:#a03d3d;fill-opacity:1" />
    <path
       d="M6450 7195 l0 -205 500 0 500 0 0 205 0 205 -500 0 -500 0 0 -205z"
       id="path16"
       style="fill:#a03d3d;fill-opacity:1" />
    <path
       d="M7530 7195 l0 -205 500 0 500 0 0 205 0 205 -500 0 -500 0 0 -205z"
       id="path18"
       style="fill:#a03d3d;fill-opacity:1" />
    <path
       d="M8610 7195 l0 -205 498 0 497 0 -3 205 -3 205 -494 0 -495 0 0 -205z"
       id="path20"
       style="fill:#a03d3d;fill-opacity:1" />
    <path
       d="M9640 7195 l0 -205 500 0 500 0 0 205 0 205 -500 0 -500 0 0 -205z"
       id="path22"
       style="fill:#a03d3d;fill-opacity:1" />
    <path
       d="M10720 7195 l0 -205 500 0 500 0 0 205 0 205 -500 0 -500 0 0 -205z"
       id="path24"
       style="fill:#a03d3d;fill-opacity:1" />
    <path
       d="M11800 7195 l0 -205 500 0 500 0 0 205 0 205 -500 0 -500 0 0 -205z"
       id="path26"
       style="fill:#a03d3d;fill-opacity:1" />
    <path
       d="M50 6740 l0 -210 285 2 286 3 0 205 0 205 -286 3 -285 2 0 -210z"
       id="path28"
       style="fill:#a03d3d;fill-opacity:1" />
    <path
       d="M3250 6740 l0 -210 285 0 285 0 0 210 0 210 -285 0 -285 0 0 -210z"
       id="path30"
       style="fill:#a03d3d;fill-opacity:1" />
    <path
       d="M6450 6740 l0 -210 285 0 285 0 0 210 0 210 -285 0 -285 0 0 -210z"
       id="path32"
       style="fill:#a03d3d;fill-opacity:1" />
    <path
       d="M9642 6743 l3 -208 285 0 285 0 0 205 0 205 -288 3 -287 2 2 -207z"
       id="path34"
       style="fill:#a03d3d;fill-opacity:1" />
    <path
       d="M670 6725 l0 -205 500 0 500 0 0 205 0 205 -500 0 -500 0 0 -205z"
       id="path36"
       style="fill:#a03d3d;fill-opacity:1" />
    <path
       d="M1750 6725 l0 -205 500 0 500 0 0 205 0 205 -500 0 -500 0 0 -205z"
       id="path38"
       style="fill:#a03d3d;fill-opacity:1" />
    <path
       d="M2830 6725 l0 -205 190 0 190 0 0 205 0 205 -190 0 -190 0 0 -205z"
       id="path40"
       style="fill:#a03d3d;fill-opacity:1" />
    <path
       d="M3870 6725 l0 -205 500 0 500 0 0 205 0 205 -500 0 -500 0 0 -205z"
       id="path42"
       style="fill:#a03d3d;fill-opacity:1" />
    <path
       d="M4950 6725 l0 -205 495 0 495 0 0 205 0 205 -495 0 -495 0 0 -205z"
       id="path44"
       style="fill:#a03d3d;fill-opacity:1" />
    <path
       d="M6030 6725 l0 -205 188 0 187 0 0 205 0 205 -187 0 -188 0 0 -205z"
       id="path46"
       style="fill:#a03d3d;fill-opacity:1" />
    <path
       d="M7070 6725 l0 -205 495 0 495 0 0 205 0 205 -495 0 -495 0 0 -205z"
       id="path48"
       style="fill:#a03d3d;fill-opacity:1" />
    <path
       d="M8150 6725 l0 -205 495 0 495 0 0 205 0 205 -495 0 -495 0 0 -205z"
       id="path50"
       style="fill:#a03d3d;fill-opacity:1" />
    <path
       d="M9220 6725 l0 -205 190 0 190 0 0 205 0 205 -190 0 -190 0 0 -205z"
       id="path52"
       style="fill:#a03d3d;fill-opacity:1" />
    <path
       d="M10260 6725 l0 -205 500 0 500 0 0 205 0 205 -500 0 -500 0 0 -205z"
       id="path54"
       style="fill:#a03d3d;fill-opacity:1" />
    <path
       d="M11340 6725 l0 -205 500 0 500 0 0 205 0 205 -500 0 -500 0 0 -205z"
       id="path56"
       style="fill:#a03d3d;fill-opacity:1" />
    <path
       d="M12420 6725 l0 -205 190 0 190 0 0 205 0 205 -190 0 -190 0 0 -205z"
       id="path58"
       style="fill:#a03d3d;fill-opacity:1" />
    <path
       d="M50 6255 l0 -205 505 0 505 0 0 205 0 205 -505 0 -505 0 0 -205z"
       id="path60"
       style="fill:#a03d3d;fill-opacity:1" />
    <path
       d="M1130 6255 l0 -205 500 0 500 0 0 205 0 205 -500 0 -500 0 0 -205z"
       id="path62"
       style="fill:#a03d3d;fill-opacity:1" />
    <path
       d="M2210 6255 l0 -205 500 0 500 0 0 205 0 205 -500 0 -500 0 0 -205z"
       id="path64"
       style="fill:#a03d3d;fill-opacity:1" />
    <path
       d="M3250 6255 l0 -205 505 0 505 0 0 205 0 205 -505 0 -505 0 0 -205z"
       id="path66"
       style="fill:#a03d3d;fill-opacity:1" />
    <path
       d="M4330 6255 l0 -205 500 0 500 0 0 205 0 205 -500 0 -500 0 0 -205z"
       id="path68"
       style="fill:#a03d3d;fill-opacity:1" />
    <path
       d="M5410 6255 l0 -205 500 0 500 0 0 205 0 205 -500 0 -500 0 0 -205z"
       id="path70"
       style="fill:#a03d3d;fill-opacity:1" />
    <path
       d="M6440 6255 l1 -205 505 0 504 0 0 205 0 205 -505 0 -506 0 1 -205z"
       id="path72"
       style="fill:#a03d3d;fill-opacity:1" />
    <path
       d="M7530 6255 l0 -205 500 0 500 0 0 205 0 205 -500 0 -500 0 0 -205z"
       id="path74"
       style="fill:#a03d3d;fill-opacity:1" />
    <path
       d="M8610 6255 l0 -205 498 0 497 0 0 205 0 205 -497 0 -498 0 0 -205z"
       id="path76"
       style="fill:#a03d3d;fill-opacity:1" />
    <path
       d="M9640 6255 l0 -205 505 0 505 0 0 205 0 205 -505 0 -505 0 0 -205z"
       id="path78"
       style="fill:#a03d3d;fill-opacity:1" />
    <path
       d="M10720 6255 l0 -205 500 0 500 0 0 205 0 205 -500 0 -500 0 0 -205z"
       id="path80"
       style="fill:#a03d3d;fill-opacity:1" />
    <path
       d="M11800 6255 l0 -205 500 0 500 0 0 205 0 205 -500 0 -500 0 0 -205z"
       id="path82"
       style="fill:#a03d3d;fill-opacity:1" />
    <path
       d="M50 5785 l0 -205 220 0 220 0 0 205 0 205 -220 0 -220 0 0 -205z"
       id="path84"
       style="fill:#a03d3d;fill-opacity:1" />
    <path
       d="M510 5785 l0 -205 500 0 500 0 0 205 0 205 -500 0 -500 0 0 -205z"
       id="path86"
       style="fill:#a03d3d;fill-opacity:1" />
    <path
       d="M1595 5785 l0 -205 498 0 497 0 0 205 0 205 -497 0 -498 0 0 -205z"
       id="path88"
       style="fill:#a03d3d;fill-opacity:1" />
    <path
       d="M2670 5785 l0 -205 270 0 270 0 0 205 0 205 -270 0 -270 0 0 -205z"
       id="path90"
       style="fill:#a03d3d;fill-opacity:1" />
    <path
       d="M3240 5785 l0 -205 220 0 220 0 0 205 0 205 -220 0 -220 0 0 -205z"
       id="path92"
       style="fill:#a03d3d;fill-opacity:1" />
    <path
       d="M3710 5785 l0 -205 500 0 500 0 0 205 0 205 -500 0 -500 0 0 -205z"
       id="path94"
       style="fill:#a03d3d;fill-opacity:1" />
    <path
       d="M4790 5785 l0 -205 500 0 500 0 0 205 0 205 -500 0 -500 0 0 -205z"
       id="path96"
       style="fill:#a03d3d;fill-opacity:1" />
    <path
       d="M5870 5785 l0 -205 270 0 270 0 0 205 0 205 -270 0 -270 0 0 -205z"
       id="path98"
       style="fill:#a03d3d;fill-opacity:1" />
    <path
       d="M6440 5785 l0 -205 220 0 220 0 0 205 0 205 -220 0 -220 0 0 -205z"
       id="path100"
       style="fill:#a03d3d;fill-opacity:1" />
    <path
       d="M6910 5785 l0 -205 500 0 500 0 0 205 0 205 -500 0 -500 0 0 -205z"
       id="path102"
       style="fill:#a03d3d;fill-opacity:1" />
    <path
       d="M7990 5785 l0 -205 500 0 500 0 0 205 0 205 -500 0 -500 0 0 -205z"
       id="path104"
       style="fill:#a03d3d;fill-opacity:1" />
    <path
       d="M9070 5785 l0 -205 265 0 265 0 0 205 0 205 -265 0 -265 0 0 -205z"
       id="path106"
       style="fill:#a03d3d;fill-opacity:1" />
    <path
       d="M9640 5785 l0 -205 220 0 220 0 0 205 0 205 -220 0 -220 0 0 -205z"
       id="path108"
       style="fill:#a03d3d;fill-opacity:1" />
    <path
       d="M10110 5785 l0 -205 500 0 500 0 0 205 0 205 -500 0 -500 0 0 -205z"
       id="path110"
       style="fill:#a03d3d;fill-opacity:1" />
    <path
       d="M11190 5785 l0 -205 495 0 495 0 0 205 0 205 -495 0 -495 0 0 -205z"
       id="path112"
       style="fill:#a03d3d;fill-opacity:1" />
    <path
       d="M12270 5785 l0 -205 265 0 265 0 0 205 0 205 -265 0 -265 0 0 -205z"
       id="path114"
       style="fill:#a03d3d;fill-opacity:1" />
    <path
       d="M30 5335 l0 -205 500 0 500 0 0 205 0 205 -500 0 -500 0 0 -205z"
       id="path116"
       style="fill:#a03d3d;fill-opacity:1" />
    <path
       d="M1120 5335 l0 -205 495 0 495 0 0 205 0 205 -495 0 -495 0 0 -205z"
       id="path118"
       style="fill:#a03d3d;fill-opacity:1" />
    <path
       d="M2195 5335 l0 -205 498 0 497 0 0 205 0 205 -497 0 -498 0 0 -205z"
       id="path120"
       style="fill:#a03d3d;fill-opacity:1" />
    <path
       d="M3230 5335 l0 -205 500 0 500 0 0 205 0 205 -500 0 -500 0 0 -205z"
       id="path122"
       style="fill:#a03d3d;fill-opacity:1" />
    <path
       d="M4310 5335 l0 -205 500 0 500 0 0 205 0 205 -500 0 -500 0 0 -205z"
       id="path124"
       style="fill:#a03d3d;fill-opacity:1" />
    <path
       d="M5390 5335 l0 -205 500 0 500 0 0 205 0 205 -500 0 -500 0 0 -205z"
       id="path126"
       style="fill:#a03d3d;fill-opacity:1" />
    <path
       d="M6430 5335 l0 -205 500 0 500 0 0 205 0 205 -500 0 -500 0 0 -205z"
       id="path128"
       style="fill:#a03d3d;fill-opacity:1" />
    <path
       d="M7510 5335 l0 -205 500 0 500 0 0 205 0 205 -500 0 -500 0 0 -205z"
       id="path130"
       style="fill:#a03d3d;fill-opacity:1" />
    <path
       d="M8590 5335 l0 -205 500 0 500 0 0 205 0 205 -500 0 -500 0 0 -205z"
       id="path132"
       style="fill:#a03d3d;fill-opacity:1" />
    <path
       d="M9630 5335 l0 -205 500 0 500 0 0 205 0 205 -500 0 -500 0 0 -205z"
       id="path134"
       style="fill:#a03d3d;fill-opacity:1" />
    <path
       d="M10710 5335 l0 -205 498 0 497 0 0 205 0 205 -497 0 -498 0 0 -205z"
       id="path136"
       style="fill:#a03d3d;fill-opacity:1" />
    <path
       d="M11790 5335 l0 -205 495 0 495 0 0 205 0 205 -495 0 -495 0 0 -205z"
       id="path138"
       style="fill:#a03d3d;fill-opacity:1" />
    <path
       d="M32 4883 l3 -208 285 0 285 0 3 208 2 207 -290 0 -290 0 2 -207z"
       id="path140"
       style="fill:#a03d3d;fill-opacity:1" />
    <path
       d="M3232 4883 l3 -208 283 -3 282 -2 0 210 0 210 -285 0 -285 0 2 -207z"
       id="path142"
       style="fill:#a03d3d;fill-opacity:1" />
    <path
       d="M6430 4880 l0 -210 285 0 285 0 0 210 0 210 -285 0 -285 0 0 -210z"
       id="path144"
       style="fill:#a03d3d;fill-opacity:1" />
    <path
       d="M9630 4880 l0 -210 285 0 285 0 0 210 0 210 -285 0 -285 0 0 -210z"
       id="path146"
       style="fill:#a03d3d;fill-opacity:1" />
    <path
       d="M650 4865 l0 -205 500 0 500 0 0 205 0 205 -500 0 -500 0 0 -205z"
       id="path148"
       style="fill:#a03d3d;fill-opacity:1" />
    <path
       d="M1730 4865 l0 -205 500 0 500 0 0 205 0 205 -500 0 -500 0 0 -205z"
       id="path150"
       style="fill:#a03d3d;fill-opacity:1" />
    <path
       d="M2810 4865 l0 -205 190 0 190 0 0 205 0 205 -190 0 -190 0 0 -205z"
       id="path152"
       style="fill:#a03d3d;fill-opacity:1" />
    <path
       d="M3850 4865 l0 -205 500 0 500 0 0 205 0 205 -500 0 -500 0 0 -205z"
       id="path154"
       style="fill:#a03d3d;fill-opacity:1" />
    <path
       d="M4930 4865 l0 -205 500 0 500 0 0 205 0 205 -500 0 -500 0 0 -205z"
       id="path156"
       style="fill:#a03d3d;fill-opacity:1" />
    <path
       d="M6010 4865 l0 -205 190 0 190 0 0 205 0 205 -190 0 -190 0 0 -205z"
       id="path158"
       style="fill:#a03d3d;fill-opacity:1" />
    <path
       d="M7050 4865 l0 -205 500 0 500 0 0 205 0 205 -500 0 -500 0 0 -205z"
       id="path160"
       style="fill:#a03d3d;fill-opacity:1" />
    <path
       d="M8130 4865 l0 -205 500 0 500 0 0 205 0 205 -500 0 -500 0 0 -205z"
       id="path162"
       style="fill:#a03d3d;fill-opacity:1" />
    <path
       d="M9210 4865 l0 -205 190 0 190 0 0 205 0 205 -190 0 -190 0 0 -205z"
       id="path164"
       style="fill:#a03d3d;fill-opacity:1" />
    <path
       d="M10240 4865 l0 -205 500 0 500 0 0 205 0 205 -500 0 -500 0 0 -205z"
       id="path166"
       style="fill:#a03d3d;fill-opacity:1" />
    <path
       d="M11320 4865 l0 -205 500 0 500 0 0 205 0 205 -500 0 -500 0 0 -205z"
       id="path168"
       style="fill:#a03d3d;fill-opacity:1" />
    <path
       d="M12400 4865 l0 -205 190 0 190 0 0 205 0 205 -190 0 -190 0 0 -205z"
       id="path170"
       style="fill:#a03d3d;fill-opacity:1" />
    <path
       d="M40 4602 c-6 -2 -10 -81 -10 -208 l0 -204 505 0 505 0 0 208 0 207 -495 0 c-272 0 -499 -1 -505 -3z"
       id="path172"
       style="fill:#a03d3d;fill-opacity:1" />
    <path
       d="M3728 4602 l-498 -2 0 -205 0 -205 505 0 505 0 0 204 c0 113 -3 206 -7 208 -5 2 -232 2 -505 0z"
       id="path174"
       style="fill:#a03d3d;fill-opacity:1" />
    <path
       d="M6928 4602 l-498 -2 0 -205 0 -205 505 0 505 0 0 204 c0 113 -3 206 -7 208 -5 2 -232 2 -505 0z"
       id="path176"
       style="fill:#a03d3d;fill-opacity:1" />
    <path
       d="M10123 4603 l-503 -3 0 -205 0 -205 505 0 505 0 0 210 c0 116 -1 209 -2 208 -2 -2 -229 -4 -505 -5z"
       id="path178"
       style="fill:#a03d3d;fill-opacity:1" />
    <path
       d="M1120 4395 l0 -205 495 0 495 0 0 205 0 205 -495 0 -495 0 0 -205z"
       id="path180"
       style="fill:#a03d3d;fill-opacity:1" />
    <path
       d="M2198 4395 l3 -205 494 0 495 0 0 205 0 205 -497 0 -498 0 3 -205z"
       id="path182"
       style="fill:#a03d3d;fill-opacity:1" />
    <path
       d="M4310 4395 l0 -205 500 0 500 0 0 205 0 205 -500 0 -500 0 0 -205z"
       id="path184"
       style="fill:#a03d3d;fill-opacity:1" />
    <path
       d="M5390 4395 l0 -205 500 0 500 0 0 205 0 205 -500 0 -500 0 0 -205z"
       id="path186"
       style="fill:#a03d3d;fill-opacity:1" />
    <path
       d="M7510 4395 l0 -205 500 0 500 0 0 205 0 205 -500 0 -500 0 0 -205z"
       id="path188"
       style="fill:#a03d3d;fill-opacity:1" />
    <path
       d="M8590 4395 l0 -205 500 0 500 0 0 205 0 205 -500 0 -500 0 0 -205z"
       id="path190"
       style="fill:#a03d3d;fill-opacity:1" />
    <path
       d="M10710 4395 l0 -205 495 2 496 3 2 203 2 202 -497 0 -498 0 0 -205z"
       id="path192"
       style="fill:#a03d3d;fill-opacity:1" />
    <path
       d="M11790 4395 l0 -205 495 0 495 0 0 205 0 205 -495 0 -495 0 0 -205z"
       id="path194"
       style="fill:#a03d3d;fill-opacity:1" />
    <path
       d="M30 3925 l0 -205 220 0 220 0 0 205 0 205 -220 0 -220 0 0 -205z"
       id="path196"
       style="fill:#a03d3d;fill-opacity:1" />
    <path
       d="M500 3925 l0 -205 500 0 500 0 0 205 0 205 -500 0 -500 0 0 -205z"
       id="path198"
       style="fill:#a03d3d;fill-opacity:1" />
    <path
       d="M1580 3925 l0 -205 500 0 500 0 0 205 0 205 -500 0 -500 0 0 -205z"
       id="path200"
       style="fill:#a03d3d;fill-opacity:1" />
    <path
       d="M2660 3925 l0 -205 265 0 265 0 0 205 0 205 -265 0 -265 0 0 -205z"
       id="path202"
       style="fill:#a03d3d;fill-opacity:1" />
    <path
       d="M3230 3925 l0 -205 220 0 220 0 0 205 0 205 -220 0 -220 0 0 -205z"
       id="path204"
       style="fill:#a03d3d;fill-opacity:1" />
    <path
       d="M3690 3925 l0 -205 500 0 500 0 0 205 0 205 -500 0 -500 0 0 -205z"
       id="path206"
       style="fill:#a03d3d;fill-opacity:1" />
    <path
       d="M4770 3925 l-1 -205 501 0 500 0 0 205 0 205 -499 0 -500 0 -1 -205z"
       id="path208"
       style="fill:#a03d3d;fill-opacity:1" />
    <path
       d="M5850 3925 l0 -205 270 0 270 0 0 205 0 205 -270 0 -270 0 0 -205z"
       id="path210"
       style="fill:#a03d3d;fill-opacity:1" />
    <path
       d="M6428 3925 l3 -205 214 0 214 0 3 205 3 205 -220 0 -220 0 3 -205z"
       id="path212"
       style="fill:#a03d3d;fill-opacity:1" />
    <path
       d="M6890 3925 l0 -205 500 0 500 0 0 205 0 205 -500 0 -500 0 0 -205z"
       id="path214"
       style="fill:#a03d3d;fill-opacity:1" />
    <path
       d="M7970 3925 l0 -205 500 0 500 0 0 205 0 205 -500 0 -500 0 0 -205z"
       id="path216"
       style="fill:#a03d3d;fill-opacity:1" />
    <path
       d="M9050 3925 l0 -205 270 0 270 0 0 205 0 205 -270 0 -270 0 0 -205z"
       id="path218"
       style="fill:#a03d3d;fill-opacity:1" />
    <path
       d="M9620 3925 l0 -205 220 0 220 0 0 205 0 205 -220 0 -220 0 0 -205z"
       id="path220"
       style="fill:#a03d3d;fill-opacity:1" />
    <path
       d="M10090 3925 l0 -205 500 0 500 0 0 205 0 205 -500 0 -500 0 0 -205z"
       id="path222"
       style="fill:#a03d3d;fill-opacity:1" />
    <path
       d="M11170 3925 l0 -205 500 0 500 0 0 205 0 205 -500 0 -500 0 0 -205z"
       id="path224"
       style="fill:#a03d3d;fill-opacity:1" />
    <path
       d="M12250 3925 l0 -205 265 0 265 0 0 205 0 205 -265 0 -265 0 0 -205z"
       id="path226"
       style="fill:#a03d3d;fill-opacity:1" />
    <path
       d="M20 3475 l0 -205 500 0 500 0 0 205 0 205 -500 0 -500 0 0 -205z"
       id="path228"
       style="fill:#a03d3d;fill-opacity:1" />
    <path
       d="M1100 3475 l0 -205 500 0 500 0 0 205 0 205 -500 0 -500 0 0 -205z"
       id="path230"
       style="fill:#a03d3d;fill-opacity:1" />
    <path
       d="M2180 3475 l0 -205 500 0 500 0 0 205 0 205 -500 0 -500 0 0 -205z"
       id="path232"
       style="fill:#a03d3d;fill-opacity:1" />
    <path
       d="M3220 3475 l0 -205 500 0 500 0 0 205 0 205 -500 0 -500 0 0 -205z"
       id="path234"
       style="fill:#a03d3d;fill-opacity:1" />
    <path
       d="M4300 3475 l0 -205 500 0 500 0 0 205 0 205 -500 0 -500 0 0 -205z"
       id="path236"
       style="fill:#a03d3d;fill-opacity:1" />
    <path
       d="M5380 3475 l0 -205 500 0 500 0 0 205 0 205 -500 0 -500 0 0 -205z"
       id="path238"
       style="fill:#a03d3d;fill-opacity:1" />
    <path
       d="M6420 3475 l0 -205 500 0 500 0 0 205 0 205 -500 0 -500 0 0 -205z"
       id="path240"
       style="fill:#a03d3d;fill-opacity:1" />
    <path
       d="M7500 3475 l0 -205 500 0 500 0 0 205 0 205 -500 0 -500 0 0 -205z"
       id="path242"
       style="fill:#a03d3d;fill-opacity:1" />
    <path
       d="M8580 3475 l0 -205 498 0 497 0 0 205 0 205 -497 0 -498 0 0 -205z"
       id="path244"
       style="fill:#a03d3d;fill-opacity:1" />
    <path
       d="M9610 3475 l0 -205 500 0 500 0 0 205 0 205 -500 0 -500 0 0 -205z"
       id="path246"
       style="fill:#a03d3d;fill-opacity:1" />
    <path
       d="M10690 3475 l1 -205 500 0 499 0 0 205 0 205 -500 0 -501 0 1 -205z"
       id="path248"
       style="fill:#a03d3d;fill-opacity:1" />
    <path
       d="M11770 3475 l0 -205 500 0 500 0 0 205 0 205 -500 0 -500 0 0 -205z"
       id="path250"
       style="fill:#a03d3d;fill-opacity:1" />
    <path
       d="M20 3020 l0 -210 285 2 286 3 0 205 0 205 -286 3 -285 2 0 -210z"
       id="path252"
       style="fill:#a03d3d;fill-opacity:1" />
    <path
       d="M3220 3020 l0 -210 285 0 285 0 0 210 0 210 -285 0 -285 0 0 -210z"
       id="path254"
       style="fill:#a03d3d;fill-opacity:1" />
    <path
       d="M6420 3020 l0 -210 285 0 285 0 0 210 0 210 -285 0 -285 0 0 -210z"
       id="path256"
       style="fill:#a03d3d;fill-opacity:1" />
    <path
       d="M9615 3217 c-3 -7 -4 -100 -3 -207 l3 -195 285 0 285 0 0 205 0 205 -283 3 c-224 2 -284 0 -287 -11z"
       id="path258"
       style="fill:#a03d3d;fill-opacity:1" />
    <path
       d="M640 3005 l0 -205 490 0 c270 0 493 -1 498 -2 4 -2 8 90 10 205 l2 207 -500 0 -500 0 0 -205z"
       id="path260"
       style="fill:#a03d3d;fill-opacity:1" />
    <path
       d="M1720 3005 l0 -205 500 0 500 0 0 205 0 205 -500 0 -500 0 0 -205z"
       id="path262"
       style="fill:#a03d3d;fill-opacity:1" />
    <path
       d="M2800 3005 l0 -205 190 0 190 0 0 205 0 205 -190 0 -190 0 0 -205z"
       id="path264"
       style="fill:#a03d3d;fill-opacity:1" />
    <path
       d="M3840 3003 l0 -208 495 0 495 0 0 208 0 207 -495 0 -495 0 0 -207z"
       id="path266"
       style="fill:#a03d3d;fill-opacity:1" />
    <path
       d="M4920 3005 l0 -205 495 0 495 0 0 205 0 205 -495 0 -495 0 0 -205z"
       id="path268"
       style="fill:#a03d3d;fill-opacity:1" />
    <path
       d="M6000 3005 l0 -205 190 0 190 0 0 205 0 205 -190 0 -190 0 0 -205z"
       id="path270"
       style="fill:#a03d3d;fill-opacity:1" />
    <path
       d="M7032 3005 l3 -205 498 -3 497 -2 0 208 0 207 -500 0 -500 0 2 -205z"
       id="path272"
       style="fill:#a03d3d;fill-opacity:1" />
    <path
       d="M8120 3005 l0 -205 495 0 495 0 0 205 0 205 -495 0 -495 0 0 -205z"
       id="path274"
       style="fill:#a03d3d;fill-opacity:1" />
    <path
       d="M9200 3208 c0 -2 -1 -94 -3 -206 l-2 -202 188 0 187 0 0 205 0 205 -185 0 c-102 0 -185 -1 -185 -2z"
       id="path276"
       style="fill:#a03d3d;fill-opacity:1" />
    <path
       d="M10232 3005 l3 -205 495 0 495 0 3 205 2 205 -500 0 -500 0 2 -205z"
       id="path278"
       style="fill:#a03d3d;fill-opacity:1" />
    <path
       d="M11310 3005 l0 -205 500 0 500 0 0 205 0 205 -500 0 -500 0 0 -205z"
       id="path280"
       style="fill:#a03d3d;fill-opacity:1" />
    <path
       d="M12390 3005 l0 -205 190 0 190 0 0 205 0 205 -190 0 -190 0 0 -205z"
       id="path282"
       style="fill:#a03d3d;fill-opacity:1" />
    <path
       d="M20 2535 l0 -205 505 0 505 0 0 205 0 205 -505 0 -505 0 0 -205z"
       id="path284"
       style="fill:#a03d3d;fill-opacity:1" />
    <path
       d="M1100 2535 l0 -205 500 0 500 0 0 205 0 205 -500 0 -500 0 0 -205z"
       id="path286"
       style="fill:#a03d3d;fill-opacity:1" />
    <path
       d="M2180 2535 l0 -205 500 0 500 0 0 205 0 205 -500 0 -500 0 0 -205z"
       id="path288"
       style="fill:#a03d3d;fill-opacity:1" />
    <path
       d="M3220 2535 l0 -205 505 0 505 0 0 205 0 205 -505 0 -505 0 0 -205z"
       id="path290"
       style="fill:#a03d3d;fill-opacity:1" />
    <path
       d="M4300 2535 l0 -205 500 0 500 0 0 205 0 205 -500 0 -500 0 0 -205z"
       id="path292"
       style="fill:#a03d3d;fill-opacity:1" />
    <path
       d="M5380 2535 l0 -205 500 0 500 0 0 205 0 205 -500 0 -500 0 0 -205z"
       id="path294"
       style="fill:#a03d3d;fill-opacity:1" />
    <path
       d="M6420 2535 l0 -205 505 0 505 0 0 205 0 205 -505 0 -505 0 0 -205z"
       id="path296"
       style="fill:#a03d3d;fill-opacity:1" />
    <path
       d="M7500 2535 l0 -205 500 0 500 0 0 205 0 205 -500 0 -500 0 0 -205z"
       id="path298"
       style="fill:#a03d3d;fill-opacity:1" />
    <path
       d="M8580 2535 l0 -205 498 0 497 0 0 205 0 205 -497 0 -498 0 0 -205z"
       id="path300"
       style="fill:#a03d3d;fill-opacity:1" />
    <path
       d="M9610 2535 l0 -205 505 0 505 0 0 205 0 205 -505 0 -505 0 0 -205z"
       id="path302"
       style="fill:#a03d3d;fill-opacity:1" />
    <path
       d="M10690 2535 l0 -205 500 0 500 0 0 205 0 205 -500 0 -500 0 0 -205z"
       id="path304"
       style="fill:#a03d3d;fill-opacity:1" />
    <path
       d="M11770 2535 l0 -205 500 0 500 0 0 205 0 205 -500 0 -500 0 0 -205z"
       id="path306"
       style="fill:#a03d3d;fill-opacity:1" />
    <path
       d="M20 2065 l0 -205 220 0 220 0 0 205 0 205 -220 0 -220 0 0 -205z"
       id="path308"
       style="fill:#a03d3d;fill-opacity:1" />
    <path
       d="M490 2065 l0 -205 500 0 500 0 0 205 0 205 -500 0 -500 0 0 -205z"
       id="path310"
       style="fill:#a03d3d;fill-opacity:1" />
    <path
       d="M1570 2065 l0 -205 495 0 495 0 0 205 0 205 -495 0 -495 0 0 -205z"
       id="path312"
       style="fill:#a03d3d;fill-opacity:1" />
    <path
       d="M2650 2065 l0 -205 265 0 265 0 0 205 0 205 -265 0 -265 0 0 -205z"
       id="path314"
       style="fill:#a03d3d;fill-opacity:1" />
    <path
       d="M3210 2065 l0 -205 220 0 220 0 0 205 0 205 -220 0 -220 0 0 -205z"
       id="path316"
       style="fill:#a03d3d;fill-opacity:1" />
    <path
       d="M3680 2065 l0 -205 500 0 500 0 0 205 0 205 -500 0 -500 0 0 -205z"
       id="path318"
       style="fill:#a03d3d;fill-opacity:1" />
    <path
       d="M4760 2065 l0 -205 500 0 500 0 0 205 0 205 -500 0 -500 0 0 -205z"
       id="path320"
       style="fill:#a03d3d;fill-opacity:1" />
    <path
       d="M5840 2065 l0 -205 270 0 270 0 0 205 0 205 -270 0 -270 0 0 -205z"
       id="path322"
       style="fill:#a03d3d;fill-opacity:1" />
    <path
       d="M6410 2065 l0 -205 220 0 220 0 0 205 0 205 -220 0 -220 0 0 -205z"
       id="path324"
       style="fill:#a03d3d;fill-opacity:1" />
    <path
       d="M6880 2065 l0 -205 500 0 500 0 0 205 0 205 -500 0 -500 0 0 -205z"
       id="path326"
       style="fill:#a03d3d;fill-opacity:1" />
    <path
       d="M7960 2065 l0 -205 500 0 500 0 0 205 0 205 -500 0 -500 0 0 -205z"
       id="path328"
       style="fill:#a03d3d;fill-opacity:1" />
    <path
       d="M9040 2065 l0 -205 265 0 265 0 0 205 0 205 -265 0 -265 0 0 -205z"
       id="path330"
       style="fill:#a03d3d;fill-opacity:1" />
    <path
       d="M9610 2065 l0 -205 220 0 220 0 0 205 0 205 -220 0 -220 0 0 -205z"
       id="path332"
       style="fill:#a03d3d;fill-opacity:1" />
    <path
       d="M10080 2065 l0 -205 500 0 500 0 0 205 0 205 -500 0 -500 0 0 -205z"
       id="path334"
       style="fill:#a03d3d;fill-opacity:1" />
    <path
       d="M11160 2065 l0 -205 495 0 495 0 0 205 0 205 -495 0 -495 0 0 -205z"
       id="path336"
       style="fill:#a03d3d;fill-opacity:1" />
    <path
       d="M12240 2065 l0 -205 265 0 265 0 0 205 0 205 -265 0 -265 0 0 -205z"
       id="path338"
       style="fill:#a03d3d;fill-opacity:1" />
    <path
       d="M10 1615 l0 -205 500 0 500 0 0 205 0 205 -500 0 -500 0 0 -205z"
       id="path340"
       style="fill:#a03d3d;fill-opacity:1" />
    <path
       d="M1090 1615 l0 -205 498 0 497 0 -3 205 -3 205 -494 0 -495 0 0 -205z"
       id="path342"
       style="fill:#a03d3d;fill-opacity:1" />
    <path
       d="M2170 1615 l0 -205 495 0 495 0 0 205 0 205 -495 0 -495 0 0 -205z"
       id="path344"
       style="fill:#a03d3d;fill-opacity:1" />
    <path
       d="M3200 1615 l0 -205 500 0 500 0 0 205 0 205 -500 0 -500 0 0 -205z"
       id="path346"
       style="fill:#a03d3d;fill-opacity:1" />
    <path
       d="M4280 1615 l0 -205 500 0 500 0 0 205 0 205 -500 0 -500 0 0 -205z"
       id="path348"
       style="fill:#a03d3d;fill-opacity:1" />
    <path
       d="M5360 1615 l0 -205 500 0 500 0 0 205 0 205 -500 0 -500 0 0 -205z"
       id="path350"
       style="fill:#a03d3d;fill-opacity:1" />
    <path
       d="M6400 1615 l0 -205 500 0 500 0 0 205 0 205 -500 0 -500 0 0 -205z"
       id="path352"
       style="fill:#a03d3d;fill-opacity:1" />
    <path
       d="M7480 1615 l0 -205 500 0 500 0 0 205 0 205 -500 0 -500 0 0 -205z"
       id="path354"
       style="fill:#a03d3d;fill-opacity:1" />
    <path
       d="M8560 1615 l0 -205 500 0 500 0 0 205 0 205 -500 0 -500 0 0 -205z"
       id="path356"
       style="fill:#a03d3d;fill-opacity:1" />
    <path
       d="M9600 1615 l0 -205 500 0 500 0 0 205 0 205 -500 0 -500 0 0 -205z"
       id="path358"
       style="fill:#a03d3d;fill-opacity:1" />
    <path
       d="M10680 1615 l0 -205 500 0 500 0 0 205 0 205 -500 0 -500 0 0 -205z"
       id="path360"
       style="fill:#a03d3d;fill-opacity:1" />
    <path
       d="M11760 1615 l0 -205 495 0 495 0 0 205 0 205 -495 0 -495 0 0 -205z"
       id="path362"
       style="fill:#a03d3d;fill-opacity:1" />
    <path
       d="M10 1160 l0 -210 285 0 285 0 0 210 0 210 -285 0 -285 0 0 -210z"
       id="path364"
       style="fill:#a03d3d;fill-opacity:1" />
    <path
       d="M3202 1163 l3 -208 283 -3 282 -2 0 210 0 210 -285 0 -285 0 2 -207z"
       id="path366"
       style="fill:#a03d3d;fill-opacity:1" />
    <path
       d="M6400 1160 l0 -210 285 0 285 0 0 210 0 210 -285 0 -285 0 0 -210z"
       id="path368"
       style="fill:#a03d3d;fill-opacity:1" />
    <path
       d="M9600 1160 l0 -210 285 0 285 0 0 210 0 210 -285 0 -285 0 0 -210z"
       id="path370"
       style="fill:#a03d3d;fill-opacity:1" />
    <path
       d="M620 1145 l0 -205 500 0 500 0 0 205 0 205 -500 0 -500 0 0 -205z"
       id="path372"
       style="fill:#a03d3d;fill-opacity:1" />
    <path
       d="M1700 1145 l0 -205 500 0 500 0 0 205 0 205 -500 0 -500 0 0 -205z"
       id="path374"
       style="fill:#a03d3d;fill-opacity:1" />
    <path
       d="M2780 1145 l0 -205 190 0 190 0 0 205 0 205 -190 0 -190 0 0 -205z"
       id="path376"
       style="fill:#a03d3d;fill-opacity:1" />
    <path
       d="M3820 1145 l0 -205 500 0 500 0 0 205 0 205 -500 0 -500 0 0 -205z"
       id="path378"
       style="fill:#a03d3d;fill-opacity:1" />
    <path
       d="M4900 1145 l0 -205 500 0 500 0 0 205 0 205 -500 0 -500 0 0 -205z"
       id="path380"
       style="fill:#a03d3d;fill-opacity:1" />
    <path
       d="M5980 1145 l0 -205 190 0 190 0 0 205 0 205 -190 0 -190 0 0 -205z"
       id="path382"
       style="fill:#a03d3d;fill-opacity:1" />
    <path
       d="M7020 1145 l0 -205 500 0 500 0 0 205 0 205 -500 0 -500 0 0 -205z"
       id="path384"
       style="fill:#a03d3d;fill-opacity:1" />
    <path
       d="M8100 1145 l0 -205 500 0 500 0 0 205 0 205 -500 0 -500 0 0 -205z"
       id="path386"
       style="fill:#a03d3d;fill-opacity:1" />
    <path
       d="M9180 1145 l0 -205 190 0 190 0 0 205 0 205 -190 0 -190 0 0 -205z"
       id="path388"
       style="fill:#a03d3d;fill-opacity:1" />
    <path
       d="M10210 1145 l0 -205 500 0 500 0 0 205 0 205 -500 0 -500 0 0 -205z"
       id="path390"
       style="fill:#a03d3d;fill-opacity:1" />
    <path
       d="M11295 1145 l0 -205 498 0 497 0 0 205 0 205 -497 0 -498 0 0 -205z"
       id="path392"
       style="fill:#a03d3d;fill-opacity:1" />
    <path
       d="M12370 1145 l0 -205 190 0 190 0 0 205 0 205 -190 0 -190 0 0 -205z"
       id="path394"
       style="fill:#a03d3d;fill-opacity:1" />
    <path
       d="M0 675 l0 -205 505 0 505 0 0 205 0 205 -505 0 -505 0 0 -205z"
       id="path396"
       style="fill:#a03d3d;fill-opacity:1" />
    <path
       d="M1090 675 l0 -205 495 0 495 0 0 205 0 205 -495 0 -495 0 0 -205z"
       id="path398"
       style="fill:#a03d3d;fill-opacity:1" />
    <path
       d="M2170 675 l0 -205 495 0 495 0 0 205 0 205 -495 0 -495 0 0 -205z"
       id="path400"
       style="fill:#a03d3d;fill-opacity:1" />
    <path
       d="M3200 675 l0 -205 505 0 505 0 0 205 0 205 -505 0 -505 0 0 -205z"
       id="path402"
       style="fill:#a03d3d;fill-opacity:1" />
    <path
       d="M4280 675 l0 -205 500 0 500 0 0 205 0 205 -500 0 -500 0 0 -205z"
       id="path404"
       style="fill:#a03d3d;fill-opacity:1" />
    <path
       d="M5360 675 l0 -205 500 0 500 0 0 205 0 205 -500 0 -500 0 0 -205z"
       id="path406"
       style="fill:#a03d3d;fill-opacity:1" />
    <path
       d="M6400 675 l0 -205 505 0 505 0 0 205 0 205 -505 0 -505 0 0 -205z"
       id="path408"
       style="fill:#a03d3d;fill-opacity:1" />
    <path
       d="M7480 675 l0 -205 500 0 500 0 0 205 0 205 -500 0 -500 0 0 -205z"
       id="path410"
       style="fill:#a03d3d;fill-opacity:1" />
    <path
       d="M8560 675 l0 -205 500 0 500 0 0 205 0 205 -500 0 -500 0 0 -205z"
       id="path412"
       style="fill:#a03d3d;fill-opacity:1" />
    <path
       d="M9597 678 l2 -203 506 -3 505 -2 0 205 0 205 -507 0 -508 0 2 -202z"
       id="path414"
       style="fill:#a03d3d;fill-opacity:1" />
    <path
       d="M10680 675 l0 -205 500 0 500 0 0 205 0 205 -500 0 -500 0 0 -205z"
       id="path416"
       style="fill:#a03d3d;fill-opacity:1" />
    <path
       d="M11760 675 l0 -205 495 0 495 0 0 205 0 205 -495 0 -495 0 0 -205z"
       id="path418"
       style="fill:#a03d3d;fill-opacity:1" />
    <path
       d="M0 205 l0 -205 220 0 220 0 0 205 0 205 -220 0 -220 0 0 -205z"
       id="path420"
       style="fill:#a03d3d;fill-opacity:1" />
    <path
       d="M470 205 l0 -205 500 0 500 0 0 205 0 205 -500 0 -500 0 0 -205z"
       id="path422"
       style="fill:#a03d3d;fill-opacity:1" />
    <path
       d="M1550 205 l0 -205 500 0 500 0 0 205 0 205 -500 0 -500 0 0 -205z"
       id="path424"
       style="fill:#a03d3d;fill-opacity:1" />
    <path
       d="M2630 205 l0 -205 265 0 265 0 0 205 0 205 -265 0 -265 0 0 -205z"
       id="path426"
       style="fill:#a03d3d;fill-opacity:1" />
    <path
       d="M3200 205 l0 -205 220 0 220 0 0 205 0 205 -220 0 -220 0 0 -205z"
       id="path428"
       style="fill:#a03d3d;fill-opacity:1" />
    <path
       d="M3670 205 l0 -205 500 0 500 0 0 205 0 205 -500 0 -500 0 0 -205z"
       id="path430"
       style="fill:#a03d3d;fill-opacity:1" />
    <path
       d="M4750 205 l0 -205 495 0 495 0 0 205 0 205 -495 0 -495 0 0 -205z"
       id="path432"
       style="fill:#a03d3d;fill-opacity:1" />
    <path
       d="M5830 205 l0 -205 265 0 265 0 0 205 0 205 -265 0 -265 0 0 -205z"
       id="path434"
       style="fill:#a03d3d;fill-opacity:1" />
    <path
       d="M6400 205 l0 -205 218 2 217 3 2 203 2 202 -220 0 -219 0 0 -205z"
       id="path436"
       style="fill:#a03d3d;fill-opacity:1" />
    <path
       d="M6868 205 l3 -205 494 0 495 0 0 205 0 205 -497 0 -498 0 3 -205z"
       id="path438"
       style="fill:#a03d3d;fill-opacity:1" />
    <path
       d="M7950 205 l0 -205 495 0 495 0 0 205 0 205 -495 0 -495 0 0 -205z"
       id="path440"
       style="fill:#a03d3d;fill-opacity:1" />
    <path
       d="M9020 205 l0 -205 270 0 270 0 0 205 0 205 -270 0 -270 0 0 -205z"
       id="path442"
       style="fill:#a03d3d;fill-opacity:1" />
    <path
       d="M9590 205 l0 -205 220 0 220 0 0 205 0 205 -220 0 -220 0 0 -205z"
       id="path444"
       style="fill:#a03d3d;fill-opacity:1" />
    <path
       d="M10060 205 l0 -205 500 0 500 0 0 205 0 205 -500 0 -500 0 0 -205z"
       id="path446"
       style="fill:#a03d3d;fill-opacity:1" />
    <path
       d="M11140 205 l0 -205 500 0 500 0 0 205 0 205 -500 0 -500 0 0 -205z"
       id="path448"
       style="fill:#a03d3d;fill-opacity:1" />
    <path
       d="M12220 205 l0 -205 265 0 265 0 0 205 0 205 -265 0 -265 0 0 -205z"
       id="path450"
       style="fill:#a03d3d;fill-opacity:1" />
  </g>
</svg>
